<?xml version="1.0" encoding="utf-8"?>
<!-- Generator: Adobe Illustrator 26.0.2, SVG Export Plug-In . SVG Version: 6.00 Build 0)  -->
<svg version="1.1" xmlns="http://www.w3.org/2000/svg" xmlns:xlink="http://www.w3.org/1999/xlink" x="0px" y="0px"
	 viewBox="0 0 640 480" style="enable-background:new 0 0 640 480;" xml:space="preserve">
<style type="text/css">
	.st0{fill:#A8806B;}
	.st1{fill:#133251;}
	.st2{fill:#2D1606;}
	.st3{fill:#F5D2C8;}
	.st4{fill:#CDAEA5;}
	.st5{fill:#F3D0C6;}
	.st6{fill:#CEAFA6;}
	.st7{fill:#F4D1C7;}
	.st8{fill:#E1B7AC;}
	.st9{fill:#FDFCFB;}
	.st10{fill:#D3A79A;}
	.st11{fill:#736051;}
	.st12{fill:#301908;}
	.st13{fill:#D7BCB5;}
	.st14{fill:#D48A8A;}
	.st15{fill:#2F1807;}
	.st16{fill:#351E0D;}
	.st17{fill:#AE7474;}
	.st18{fill:#3E220D;}
	.st19{fill:#BF8B7C;}
	.st20{fill:#E8C6BB;}
	.st21{fill:#F7DED7;}
	.st22{fill:#3B1F0A;}
	.st23{fill:#DEDCDC;}
	.st24{fill:#E3E1E0;}
</style>
<g id="Layer_2_copy">
	<path class="st0" d="M54.5,251.4c-6.2-48.8,8-94.1,31.9-118.2c23.8-24.1,58.1-23.8,95.1-18.4c9.3,1.3,18.7,3,28.2,4.7l0.5,0.1
		c9.3,1.6,18.6,3.3,27.9,4.7c18.9,2.8,37.5,4.4,54.7,2.4c28.6-3.3,56.9-15.6,84.8-27.8c5.8-2.5,11.6-5,17.3-7.5
		c33.6-14.2,66.6-25.3,99.1-17.4c32.6,7.9,55.8,26.2,70.9,54c15.1,27.9,22,65.4,21.8,111.6c-0.2,46.1-29.6,90.6-74,125.2
		c-44.4,34.6-103.8,59.1-164.1,65c-60.2,5.9-111.1-4.1-147-15.6c-17.9-5.7-32.1-11.9-41.8-16.5c-4.8-2.3-8.6-4.3-11.1-5.7
		c-1.3-0.7-2.2-1.2-2.8-1.6c-0.3-0.2-0.6-0.3-0.7-0.4c-0.1,0-0.1-0.1-0.2-0.1l0,0l0,0c0,0,0,0,0,0C87.4,352.2,60.8,300.1,54.5,251.4
		L54.5,251.4z"/>
</g>
<g id="Layer_2">
</g>
<g id="Layer_3">
	<g>
		<path class="st1" d="M465.4,394.1c0-0.9-0.3-1.3-1.1-1.6c-2.2-0.9-4.4-1.7-6.5-2.7c-6-3-12.5-5-18.9-6.6
			c-9.7-2.5-19.3-5.3-28.9-7.8c-7.7-2-15.3-4.4-23-6.1c-6.2-1.4-12-3.7-16.8-7.9c-0.3-0.3-0.6-0.4-0.9-0.7c-0.8-0.6-1.6-0.7-2.4-0.2
			c-0.6,0.1-0.6,0.7-0.8,1.1c-1.7,3.8-3.3,7.6-5.6,11.1c-2.7,4.1-5.8,8-8.9,11.8c-2.2,2.7-4.4,5.5-6.8,8c-4.3,4.4-9.7,6.9-15.4,8.7
			c-3.7,1.1-7.5,1.6-11.2,2.3c-5.8,1.2-11.7,1.7-17.7,1.1c-8.5-0.8-16.2-3.5-23.3-8.1c-2.3-1.5-4.1-3.6-6.2-5.3
			c-4-3.1-7.2-6.9-10.1-11.1c-3.6-5.1-6.9-10.5-9.5-16.2c-0.3-0.6-0.5-1.2-1.1-1.5c-1-1-2.1-0.6-3,0.1c-2.4,1.6-5.1,2.7-7.6,4.1
			c-6.2,3.5-12.9,6.1-19.5,8.7c-8.1,3.3-16.5,5.9-24.4,9.7c-2.2,1.1-4.7,1.7-7.1,2.3c-9.7,2.4-18.7,6.6-27.7,10.8
			c9.7,4.6,23.5,10.6,41,16.2c35.9,11.5,86.8,21.5,147,15.6c40.7-4,81-16.5,116.5-34.8C465.4,394.7,465.4,394.4,465.4,394.1z"/>
		<path class="st2" d="M361.4,283.7c-0.3,0.5-0.5,1-0.5,1.6c-0.6,6.3-2.1,12.4-3.1,18.6c-0.1,0.5-0.5,0.9-0.8,1.3
			c-2.8,4.2-6.5,7.6-9.3,11.8c-0.3,0.3,0,0.7-0.3,1c-2.4,2.3-4.2,5.1-6.4,7.6c-1.8,2-3.6,4.1-5.5,6c-2,2-3.8,4-5.4,6.3
			c-1.6,2.3-3.5,4.4-5.6,6.3c-1.7,1.6-3.9,2.6-6.2,2.6c-4,0.1-8,0.7-12,0.7c-6.5-0.1-12.1-2.1-17.1-6c-2.9-2.3-5.7-4.7-8.3-7.3
			c-3.2-3.3-6.7-6.3-10.3-9.1c-0.4-0.3-0.7-0.6-1-1c-1.5-2.2-3.7-3.8-5.5-5.8c-2.6-2.9-5-6-7.8-8.7c-0.4-0.4-0.5-1-0.7-1.5
			c-1.4-4.2-2.4-8.5-3-12.9c-0.5-3.1-1.3-6.1-1.9-9.1c-1.1-1.7-1.2-3.7-1.5-5.6c-0.9-6.2-1.6-12.5-3.1-18.6
			c-0.1-0.9-0.3-1.8-0.5-2.7c-0.4-3.3-1.8-6.4-2.5-9.7c-0.3-1.2-1.1-2.3-1.8-3.4c-0.4-0.6-1-1.1-1-2c-0.9-1.3-1.3-2.8-1.4-4.4
			c-0.1-2.1-0.7-4.1-1.4-6c-1.4-3.7-2.5-7.7-5.2-10.8c-1.5-1.8-3.3-3.3-5.1-4.8c-3.9-3.3-5.1-7.7-5-12.4c0.2-5.4,2.1-10.1,5.7-14.3
			c1.3-1.5,2.9-2.8,4.7-3.4c3.7-1.3,5.5-7,5.4-9.9c0-0.4-0.2-0.6-0.4-0.9c-3.8-3.5-4.3-8.1-3.9-12.8c0.6-6.4,3.4-11.7,8.9-15.3
			c1.3-0.8,2.6-1.5,4.2-0.9c0.2,0.1,0.3,0.3,0.3,0.6c0,0.2,0,0.4,0,0.6c-0.1,0.5-0.5,0.7-0.9,0.9c-2.9,1.1-4,3.6-4.4,6.4
			c-0.4,2.9-0.5,5.9,1.9,8.2c0.4,0.4,0.8,1.3,1.4,0.8c0.6-0.5,1.1-1.4,0.5-2.3c-0.5-0.8-0.9-1.6-1.2-2.4c-1.1-3.1-1-6.2,0.7-9.1
			c0.5-0.9,1.2-1.6,2.2-1.9c0.8-0.4,1.7-0.7,2.5-1.1c0.3,0,0.6,0,0.9,0c0.3,0.2,0.7,0.3,1,0.5c0.4,0.2,0.5,0.6,0.4,1
			c-0.1,0.4-0.5,0.6-0.9,0.6c-4,0.4-6,3.3-5.3,7.4c0.2,1.1,0.6,2.1,1.1,3.1c0.2,0.1,0.4-0.1,0.5-0.2c2.7-5.2,7.2-8.9,11.7-12.4
			c0.6-0.5,1.1-1.1,1.6-1.8c1.8-3.2,4.5-5.4,8.1-6.4c4.9-1.3,9.8-2.1,14.8-2.4c0.6,0,0.9-0.2,1-0.9c1.1-4.9,3.8-6.8,8.8-6.5
			c1.2,0.1,2.4,0.2,3.7,0.7c-0.5-1.9,0.1-2.6,2-2.7c5.4-0.5,9.3,2.4,10.3,7.7c0.2,0.9,0.4,1.1,1.3,0.7c6.2-2.6,12.6-2.4,19.1-1.2
			c5,0.9,10.1,1.9,14.9,3.5c9.7,3.2,16.2,10.1,17.3,22.3c0.1,0.8,0.5,1.2,1,1.6c5.4,4,8.9,9.2,10.9,15.6c0.5,1.7,0.6,3.5,0.5,5.3
			c-0.2,2.5,0.1,5.1-0.3,7.6c-0.1,0.6,0.2,1,0.6,1.3c3.9,3.7,6.3,7.9,5.4,13.6c-0.4,2.3,0.9,4.4,0.9,6.6c0,1.4,0.1,2.8,0,4.2
			c-0.1,0.7-0.2,1.5-1.1,1.7c-0.9,0.2-1.1-0.6-1.5-1.3c-1,7.5-4.7,13.5-9.6,18.9c-0.5,0.9-1.5,1.1-2.3,1.7c-1.1,0.8-1.6,1.7-1.6,3
			c0,6.6-1,13.1-1.6,19.7c-0.3,3.2-0.2,6.4-0.7,9.6c-0.5,3.6-0.9,7.3-0.9,11C361.9,282.3,361.8,283,361.4,283.7z"/>
		<path class="st3" d="M366.6,360.4c-0.8,1.8-1.6,3.7-2.4,5.5c-3.2,7.3-8.2,13.4-13.3,19.5c-2.4,2.9-4.7,5.8-7.4,8.4
			c-4.8,4.6-10.8,6.9-17,8.4c-5.8,1.3-11.6,2.6-17.5,3c-12.2,0.7-23.6-2-33.6-9.3c-7.8-5.7-14.2-12.9-19.1-21.4
			c-2.3-3.9-4.5-7.9-6.4-12c0.9-0.5,1.6-1.2,2.3-1.9c4.6-4.7,9.5-9.1,15-12.8c3.7-2.5,4-5.9,3.6-9.8c-0.3-2.9-1.3-5.7-1-8.6
			c0.8-0.3,0.9,0.4,1.1,0.8c2.3,5.3,5.6,9.9,8.9,14.5c3.8,5.3,7.9,10.3,13.4,14c3.4,2.2,7.2,3.6,11.3,4.2c2.5,0.4,5,0.3,7.5-0.3
			c2.8-0.6,5.7-1.2,8.5-2.2c2.1-0.7,3.7-1.9,5.3-3.5c6.6-6.6,10.8-14.8,15.2-22.8c2.1-3.7,3.4-7.9,4.8-12c0.2-0.7,0.4-1.4,0.7-2
			c0.2-0.4,0.2-1,0.9-0.8c0.3,1.4-0.2,2.8-0.2,4.3c-0.1,3.4,0.9,6.6,1.4,9.9c0.5,3.6,1.2,7.2,1.8,10.8c0.2,1.1,0.6,1.9,1.5,2.5
			c5.1,3.6,9.1,8.5,13.6,12.7C365.9,359.8,366.3,360.1,366.6,360.4z"/>
		<path class="st4" d="M347.6,319.2c-0.6,0.2-0.6,0.7-0.7,1.2c-1.3,4.6-3.1,9-5.1,13.3c-1.9,4.1-4.5,7.9-6.7,11.8
			c-2.7,4.6-6.1,8.7-9.7,12.5c-1,1-2.2,1.7-3.5,2.2c-4.1,1.6-8.4,2.7-12.7,3.1c-4.3,0.5-8.5-0.8-12.5-2.6c-4.5-2-8.1-5.3-11.4-8.9
			c-3-3.4-5.8-6.8-8.2-10.6c-2.4-3.7-5-7.3-6.7-11.5c-0.1-0.3-0.2-0.5-0.6-0.6c0-0.3,0-0.5,0-0.8c0-0.2-0.1-0.4-0.2-0.6
			c0.1-1.2-0.6-2.5-0.1-3.7c2.3,1.3,4.2,3.1,6.2,4.7c4.2,3.6,8,7.7,12.2,11.3c5.5,4.6,11.6,7,18.7,7.1c3.9,0,7.8-0.7,11.7-0.8
			c2.2,0,4.2-1,5.9-2.6c1.5-1.4,3-2.8,4.2-4.5c3.1-4.7,7.1-8.5,10.9-12.5c2.4-2.6,4.2-5.5,6.7-8c0.3-0.3,0.5-0.8,1-0.9
			c0.2-0.1,0.3-0.1,0.5,0.1C347.6,318.3,347.6,318.8,347.6,319.2z"/>
		<path class="st5" d="M361.4,283.7c-0.1-2.1,0.1-4.2,0.2-6.3c0.5-5.7,1.2-11.5,1.5-17.2c0.4-6.7,1.5-13.3,1.5-20
			c0-0.7,0.4-1.2,1-1.7c1-0.7,2.1-1.5,3.3-1.9c0.5,0.6,1.3,0.2,1.9,0.4c2.4,0.7,3.9,2.4,4.7,4.6c0.6,1.7,0.9,3.5,1.4,5.2
			c0.2,0.7-0.1,1.4-0.2,2.1c-0.7,2.6-1.2,5.3-2.8,7.5c-0.5-0.4-0.4-1-0.2-1.4c0.7-3.2,0.2-6.4-0.3-9.5c-0.1-0.8-0.3-1.6-0.3-2.4
			c-0.1-1-0.7-1.3-1.6-0.7c-0.5,0.3-0.8,0.8-1.2,1.3c-2.6,4-4.4,8.4-5.3,13c0,0.2-0.1,0.5-0.1,0.7c0,0.3,0,0.7,0.4,0.8
			c0.5,0.2,0.7-0.2,0.8-0.6c0.5-1.4,0.6-2.9,1.1-4.3c0.2-0.7,0.2-1.7,1.1-1.8c1-0.1,1.2,0.9,1.5,1.6c0.9,2.4,2.1,4.6,2.8,7
			c-1,2.4-1.9,4.8-3.3,7c-1.4-1.6-1.4-1.6-3.1,0.1c-1.1,1.1-1.9,2.4-2.9,3.6c-0.6,0.7-0.4,1.6-0.4,2.5c0,0.4,0.1,0.9,0.6,1
			c0.5,0.1,0.8-0.3,0.9-0.7c0.7-1.7,1.9-3.2,3.2-4.5c0.3-0.3,0.5-0.9,1.2-0.6c-1.4,4.4-3.3,8.5-4.8,12.9
			C363.6,282.7,362.2,282.8,361.4,283.7z"/>
		<path class="st5" d="M246.3,261.6c1.3,4.7,2,9.6,2.6,14.4c0.5,3.3,1.1,6.6,1.7,10c-2-1.1-3.3-2.8-4.7-4.5
			c-1.8-2.2-3.3-4.7-3.9-7.5c0.9-0.3,1.3,0.4,1.9,0.8c0.3,0.2,0.5,0.5,0.9,0.8c0.3,0.2,0.6,0.4,0.9,0c0.2-0.3,0.1-0.6-0.1-0.8
			c-1.2-1.2-2.3-2.5-4.2-2.7c-1.4-3.4-2.8-6.7-4.2-10.1c0.7-0.4,1.1-1,1-1.9c-0.1-1.6,1-2.4,2.1-3.2c0.5-0.4,1-0.2,1.4,0.3
			c0.6,0.7,1.3,1.4,1.9,2.2C244.3,260.2,245.1,261.1,246.3,261.6z"/>
		<path class="st6" d="M372.6,260.1c-0.5,0-0.7-0.4-0.7-0.7c-0.5-2.3-1.9-4.3-2.7-6.6c-0.1-0.4-0.3-1.2-0.9-1.1
			c-0.6,0-0.5,0.7-0.6,1.2c-0.4,1.5-0.7,3.1-1.1,4.6c-0.2,0.7-0.4,1.7-1.4,1.4c-0.9-0.2-0.9-1-0.7-1.9c1-4.9,2.8-9.5,5.6-13.7
			c0.3-0.5,0.7-0.9,1.1-1.3c0.5-0.4,1-0.6,1.7-0.2c0.6,0.4,0.6,0.8,0.5,1.5c-0.1,0.5,0,1,0.1,1.5c0.7,3.7,1.2,7.4,0.3,11.2
			c0,0.2,0,0.4,0,0.6C373.7,257.8,373.1,259,372.6,260.1z"/>
		<path class="st5" d="M240.1,244.1c3.8,4.3,4.5,9.7,5.7,14.9c-0.8,0.2-1.1-0.4-1.4-0.9c-1.4-2.3-3.1-4.3-4.9-6.3
			c-0.1-0.1-0.2-0.3-0.4-0.4c-0.5-0.4-0.9-0.9-1.6-0.7c-0.7,0.2-0.8,0.9-0.8,1.5c0,1.5-0.2,2.9-0.3,4.4c0,0.5,0.1,1.1-0.6,1.2
			c-1.3-2.7-2.7-5.3-2.6-8.4c0-1.3,0.4-2.4,1.1-3.5c1.4-2,2.5-2.5,5-2C239.5,244,239.8,244,240.1,244.1z"/>
		<path class="st6" d="M235.7,257.9c0.4-1.7,0.6-3.4,0.6-5.2c0-1,0-2,1-2.4c1.2-0.4,1.8,0.6,2.5,1.3c1.9,2.1,3.8,4.3,5.2,6.8
			c0.2,0.3,0.5,0.6,0.8,0.7c0.3,0.8,0.5,1.7,0.5,2.6c-1.7,0.4-2-1.3-3-2c-0.5-0.4-0.8-1.1-1.3-1.5c-0.5-0.4-0.6-1.6-1.4-1.1
			c-0.9,0.6-2,1.2-2.1,2.5c0,0.4,0,0.8,0,1.1c0.1,1-0.4,1.4-1.4,1.2C236.4,260.6,236,259.2,235.7,257.9z"/>
		<path class="st6" d="M368.9,268.4c-1.7,1.5-3.2,3.1-4,5.2c-0.2,0.6-0.4,1.2-1.3,1.1c-0.8-0.1-0.9-0.8-1-1.5
			c-0.4-2.6,1.7-4,2.9-5.8c0.3-0.4,0.7-0.8,1.1-1.1c1.6-1.6,2.2-1.5,2.8,0.7C369.2,267.5,369,268,368.9,268.4z"/>
		<path class="st6" d="M241.3,271.9c0.8-0.5,1.4-0.3,2,0.3c0.8,0.8,1.8,1.5,2.5,2.3c0.4,0.4,0.5,0.8,0.1,1.3c-0.4,0.5-0.9,0.5-1.4,0
			c-0.8-0.8-1.5-1.6-2.6-2C241.5,273.4,241.3,272.7,241.3,271.9z"/>
		<path class="st3" d="M269.7,327.8c0.3,0.1,0.6,0.3,0.2,0.6C269.6,328.3,269.6,328.1,269.7,327.8z"/>
		<path class="st3" d="M347.6,317.9c-0.2,0-0.3,0-0.5-0.1c0-0.3,0.2-0.6,0.5-0.8C347.6,317.3,347.6,317.6,347.6,317.9z"/>
		<path class="st7" d="M247.9,230.5c0.1-0.4,0.2-0.8,0.2-1.3c-0.1-5.1,0.4-10.2-0.5-15.3c-0.1-0.6,0.3-0.8,0.7-0.9
			c2.3-1.3,4.5-2.9,6.6-4.5c3-2.2,5.6-4.6,7.5-7.8c4.9-8.3,9.6-16.7,13.5-25.6c0.4-0.9,0.7-1.8,0.9-2.7c0.2-1.1,0.8-1.4,1.8-1.4
			c3.7,0,7.2,0.8,10.7,2c4.5,1.4,9,2.1,13.7,1.1c0.7-0.1,0.9,0.1,1.3,0.6c1.7,2.1,3.2,4.3,5.1,6.3c3.5,3.7,7.8,5.7,12.6,7
			c7,1.9,13.6,1,19.9-2.5c2.4-1.4,4.1-3.6,6.1-5.4c1.6-1.5,2.8-1.2,3.5,0.8c1.8,4.6,1.8,9.5,1.5,14.3c-0.3,4.3-0.3,8.5-0.3,12.7
			c0,2.6,0.8,5,2.2,7.2c2.1,3.5,3,7.4,4.6,11.1c0.5,1.2,0.8,2.6,1.6,3.7c-0.7,0.8-1.6,0.5-2.5,0.3c-0.2-0.1-0.3-0.2-0.4-0.3
			c0-2.2-1.4-3.7-2.6-5.3c-1.4-1.8-2.8-3.6-4.2-5.4c-0.9-1.2-2.1-1.9-3.5-2.3c-4.2-1.2-8.6-1.4-12.9-2.1c-3.1-0.5-6.3-0.9-9.5-0.9
			c-1.1,0-2.2,0.1-3.1,0.8c-0.6,0.5-1.3,0.7-1.6-0.4c-0.3-1-0.9-0.5-1.2,0c-0.7,0.8-1,1.8-1.5,2.8c-0.2,0.4-0.4,1.1-0.9,1
			c-0.6-0.1-0.5-0.8-0.5-1.3c0-0.4,0.1-0.9,0.2-1.3c0-0.5,0.2-1.2-0.5-1.3c-0.7-0.1-0.6,0.6-0.7,1c-0.4,2.5-0.8,5.1-0.1,7.7
			c-0.7,2.9-1.7,5.6-4,7.8c-0.7,0.1-1.2-0.2-1.8-0.4c-3.2-1.4-6.2-0.7-9.2,0.7c-0.4,0.2-0.7,0.5-1.2,0.5c-1.7-3.3-4.3-6.1-5.9-9.4
			c0.1-1.9,0.2-3.7,0.3-5.6c0-0.2,0.1-0.5,0.1-0.7c0-0.5,0-1.1-0.6-1.2c-0.6-0.1-0.7,0.5-0.8,1c-0.1,0.7,0,1.4-0.1,2.1
			c0,0.6,0.1,1.2-0.5,1.6c-0.5-0.3-0.5-0.7-0.5-1.2c-0.1-0.7-0.3-1.4-0.5-2.1c-0.3-0.8-0.8-1.1-1.6-1.2c-6.5-0.7-12.9-0.2-19.2,1.1
			c-0.5,0.1-1,0.3-1.5,0.3c-4,0-6.8,2.3-9.6,4.8c-3,2.6-5.3,5.6-6.9,9.2c-0.1,0.3-0.3,0.5-0.6,0.6
			C250.1,231,248.9,231.4,247.9,230.5z"/>
		<path class="st5" d="M329.9,298.1c0,1.5,1.1,2.6,1.4,4.1c0.2,1.1,1.2,0.2,2.1-0.1c0,1,0,1.9,0,2.8c0.1,1.6,0,3.2,1.1,4.6
			c0.8,1,0.5,2.5,0.4,3.8c-0.1,2.6-0.5,5.2-1.1,7.8c-0.6-0.3-1-0.8-1.7-0.4c-0.5,0.4-0.4,0.9-0.4,1.4c0.2,1.4,0,2.7-0.4,4
			c-0.4,1.5-1.4,2.2-3,1.8c-1.5-0.3-1.7,0.6-1.8,1.7c-0.8-0.3-1.2-1-1.8-1.5c-0.4-0.4-0.9-0.7-1.5-0.4c-0.6,0.3-0.6,0.8-0.5,1.4
			c0.3,2.1-0.5,4-1.4,6.3c-0.5-1.1-0.8-1.8-1.1-2.5c-0.5-1.1-1.1-2.1-2.4-2.5c-0.3-0.1-0.6-0.4-0.8-0.8c-0.8-1.4-2.2-2-3.6-2.5
			c-0.5-0.2-0.5-0.5-0.6-0.9c-0.3-1-0.5-1.9-0.8-2.9c-0.2-0.6-0.6-1.2-1.4-1c-0.7,0.2-0.8,0.8-0.7,1.4c0.2,1,0.2,2,0.2,3
			c0,0.9-1,1-1.2,0.8c-0.8-0.9-2-0.9-2.9-1.5c-0.2-0.2-0.4-0.3-0.4-0.5c0.4-1.2-1-1.9-0.7-3c0.1-0.3-0.4-0.6-0.8-0.7
			c-0.6,0-0.9,0.3-1.1,0.8c-0.4,1.1-0.7,2.3-1,3.4c-0.2,1-0.5,1.5-1.6,0.8c-0.8-0.6-1.3,0.1-1.7,0.8c-1,2-1,4.2-1.4,6.4
			c-0.3,0.2-0.5-0.1-0.7-0.2c-1.2-0.9-2.3-1.8-3.9-1.8c-0.6,0-1.3-1.3-1.3-2.1c0.1-1.8-1-3.4-0.6-5.3c0.2-1-0.7-1.3-1.6-1.4
			c-0.1-0.5,0.4-0.9,0.5-1.3c0.1-0.6,0.1-1.4-0.6-1.4c-1,0-1.9-0.7-2.9-0.4c-0.7,0.2-0.9,0.1-0.9-0.7c-0.1-1.4,0.3-3-1.5-3.7
			c-0.1,0-0.1-0.5-0.1-0.8c0.1-2.7,0.2-5.4,0.2-8c0-1.1-0.4-2-1.6-1.9c-1.1,0-1.6,0.9-1.5,1.9c0.3,1.9-0.4,3.4-1.6,4.8
			c-0.6,0.7-0.7,2.1-1.5,2.1c-0.7,0-1.9-0.4-2.4-0.9c-1.2-1-3.2-1.5-2.9-3.8c0.1-1.1-0.2-2.2-1.6-2.5c-0.4-0.1-0.3-0.4-0.4-0.7
			c-0.1-0.7-0.1-1.3-0.2-2c-0.1-1.1-0.7-1.6-1.7-1.3c-1.1,0.3-1.1-0.3-1.1-1c0-2.5-0.6-4.9-0.9-7.4c-0.1-1.2-0.5-2.2-1.9-2.3
			c-0.7-0.1-0.6-0.5-0.6-0.9c0-0.7-0.2-1.3-0.7-1.8c-0.9-1.5-1.3-3.2-1.9-4.7c-1.6-4-3.5-7.9-6-11.4c-1.9-2.7-3.9-5.4-5.9-8.1
			c-1.6-2.9-1.8-6.2-2.5-9.4c-1.3-5.7-0.3-11.3,0.2-16.9c0.1-0.7,0.1-1.4,0.1-2.1c0.5-0.9,1.3-0.6,2-0.4c0.8,0.3,0.6,1,0.4,1.6
			c-0.5,1.7-0.3,3.3,0,5c0.9,4.2,1.7,8.3,3.7,12.2c2.2,4.2,5.3,7.4,9.5,9.4c2.9,1.3,6,1.8,9.2,1.7c3.1-0.1,5.9-0.7,8.8-1.8
			c5.8-2.2,9-6.5,10.9-12.1c1.1-3.2,1.4-6.6,1.8-10c0.2-1.8,1.4-2.8,3-2.5c0.3,0.5,0.1,1,0,1.5c-0.9,5-1.9,10-3.4,14.8
			c-0.6,1.9-1.3,3.8-2.4,5.5c-2.4,3.6-2.4,7.5-2.2,11.6c0,0.7,0.4,1.2,0.8,1.6c1.5,1.6,3.4,2.6,5.5,3.2c0.7,0.2,1.4,0.3,1.9,1
			c0.2,0.6-0.2,0.8-0.6,0.9c-1,0.3-1.4,1-1.7,1.9c-0.3,1-0.7,1.7-1.9,1.3c-0.4-0.1-0.8,0-1.1,0.3c-0.9,0.7-1.7,1.7-3,1.8
			c0,0-0.1,0-0.1,0.1c-1.1,2.2-3.5,2.9-5,4.6c-3,3.5-3.9,7.3-2.6,11.7c0.2,0.7,0.6,1.2,1.4,1.1c0.9-0.2,0.7-0.9,0.6-1.5
			c-0.1-0.8-0.3-1.5-0.1-2.3c0.2-0.7,0.6-1.1,1-1.6c0.8-1.2,2.5-1.2,3.1-2.6c0.1-0.2,0.4-0.3,0.6-0.3c1.2,0.1,2-0.7,2.6-1.5
			c0.9-1.1,2.2-1.7,3-2.8c0.4-0.5,0.8-0.4,1.3,0c1.4,1.1,1.9,0.8,3-0.5c1.2-1.5,1.1-3.5,2.6-4.8c0.2-0.3,0.4-0.6,0.7-0.6
			c1.4-0.1,1.3-1,1.2-2c-0.1-0.8-0.6-1.7,0.2-2.4c1.8-0.5,3.6-0.5,5.4-0.7c0.7-0.1,1.4,0,1.7,0.7c-0.9,1-1,4.4-0.2,5.4
			c0.5,0.5,1,0.5,1.5,0c0.1-0.1,0.2-0.1,0.3,0c0.2,0.8,0.4,1.7,0.6,2.5c0.2,0.7,0.5,1.3,1.4,1.2c0.4,0,0.6,0.2,0.8,0.4
			c1,1.2,2.8,1.4,3.7,2.9c0.1,0.1,0.7,0.2,0.8,0.1c1.1-1,1.5,0,2.1,0.7c0.3,0.4,0.8,0.5,1.3,0.7c2,0.7,4.5,0.6,6,2.6
			c0.1,0.1,0.3,0.2,0.2,0.4C327.5,298.2,328.7,298.1,329.9,298.1L329.9,298.1z"/>
		<path class="st7" d="M362.6,236c-0.1,2.9,0.3,5.9,0,8.8c-0.5,5.3-1,10.5-1.5,15.8c0,0.3-0.1,0.7-0.4,0.9c-0.9,0.5-1,1.5-1.1,2.4
			c-0.8,2.4-2.1,4.5-3.2,6.7c-2.2,4.3-3.6,8.9-4.6,13.6c-0.2,0.8-0.4,1.5-0.6,2.3c-0.1,0.5-0.1,0.9-0.2,1.4c0,0.3,0,0.7-0.5,0.7
			c-1.2,0-1.1,1.1-1.5,1.9c-0.8,1.9-0.6,4-1.5,5.9c-0.3,0.6-0.4,1.4-0.5,2.1c-0.2,0.9-0.3,1.9-1.4,2.2c-0.5,0.2-0.7,0.9-0.9,1.4
			c-0.2,0.9-0.4,1.8-0.6,2.7c-0.1,0.4,0.1,1-0.5,1.1c-0.5,0.1-0.7-0.4-0.9-0.8c-0.3-0.4-0.6-0.9-0.9-1.3c-0.3-0.5-0.7-0.9-1.4-0.7
			c-0.6,0.2-0.7,0.7-0.8,1.2c-0.2,0.7,0.5,1.7-0.4,2c-0.8,0.3-0.9-1-1.6-1.1c-0.4-0.1-0.5-0.4-0.5-0.8c-0.4-1.7-0.6-3.5-1.5-5.1
			c-0.1-0.2,0.1-0.6,0.2-1c0.5-2.4-0.2-4.5-2.2-5.8c-0.5-0.4-0.4-0.9-0.6-1.4c-0.4-0.9-0.6-1.8-2-1.4c-0.7,0.2-1.3-0.8-2-1.1
			c-1.9-1-2.7-2.9-3.8-4.5c-0.7-1-1.4-1-2.1,0.1c-0.5,0.8-0.7,0.5-1.3,0.1c-1.9-1.4-2.9-3.7-5.1-4.8c-0.9-0.4-1.8-1-2.9-1
			c-0.3-0.8,0.4-0.9,0.8-1.1c2-1.1,3.7-2.5,5.1-4.3c1.3-1.8,1.6-3.7,0.7-5.7c-0.5-1.3-1.1-2.6-1.9-3.9c-1.7-2.8-2.5-6-3-9.2
			c-0.7-4.1-1.8-8.1-2-12.3c-0.1-1-0.3-2.1,0.2-3.1c1.5-0.1,2.6,0.9,2.8,2.5c0.4,3.3,0.7,6.6,1.7,9.7c1.9,5.8,5.3,10.1,11.1,12.5
			c5.5,2.2,11,2.4,16.5,0.6c3.4-1.1,6.3-3.2,8.5-6.1c3-4,4.8-8.6,5.6-13.5c0.4-2.6,1.3-5.1,0.5-7.8c-0.1-0.5-0.1-1,0.5-1.2
			C361.5,235.4,362.2,235.1,362.6,236z"/>
		<path class="st8" d="M313.8,238.9c-0.1,4.2,0.7,8.2,1.5,12.3c0.5,2.5,0.8,5,1.6,7.4c0.7,2.1,1.4,4.1,2.7,5.9c2.8,4,2,8.5-2,11.4
			c-1.2,0.9-2.5,1.7-3.8,2.6c-0.3,0.1-0.7,0.2-0.9,0c-1-0.8-1.6-0.4-1.9,0.7c-0.2,1-0.9,0.1-1.3,0.3c-1.7-0.9-3.3,0-5,0
			c-0.8,0-1.7,0.1-2.5,0.2c-0.5,0.3-1,0.4-1.5,0.3c-0.2-0.1-0.2-0.3-0.2-0.5c0-0.3,0.1-0.6-0.1-0.8c-1.1-1.2-2-0.3-3.1,0.1
			c-1.8-0.9-3.9-1.1-5.7-2.3c-1.9-1.3-3.4-2.7-3-5.3c0.1-0.6,0.1-1.2,0-1.7c-0.4-2.7,0.4-5.2,1.8-7.5c2.6-4.2,3.7-9,4.7-13.8
			c0.7-2.9,1.1-5.9,1.7-8.8c0.1-0.8,0.7-1,1.3-1.2c4.2-1.6,8.6-1.9,12.9-1C312,237.5,313.3,237.5,313.8,238.9z"/>
		<path class="st9" d="M313.8,238.9c-1.5-1.2-3.4-1.4-5.2-1.6c-4.1-0.4-8.1,0-11.8,2.1c-2,0.6-2.3,1.2-2.5,3.2
			c-0.6,6.3-1.8,12.5-6.2,17.5c-1.4,1.6-3.1,2.9-5.1,3.7c-1.8,0.8-3.7,1.4-5.6,2.1c-0.7,0.2-1.4,0.3-2.1,0.3
			c-3.5,0.3-6.9,0.2-10.3-0.9c-3.6-1.2-6.7-3.2-9-6.2c-3.5-4.5-5.2-9.8-6.2-15.3c-0.4-2.2-1-4.3-0.1-6.5c0.2-0.5,0-1-0.7-0.9
			c-0.5,0-1.1-0.2-1.5,0.2c-2.9,0.4-3.1-0.1-2.7-3c0-0.1,0-0.3,0.1-0.4c0.4-2.6,0.5-2.6,3.1-2.7c1.1,0,2.3,0.1,3.4,0.1
			c1.3,0.2,2.3-0.4,3.2-1.2c1-0.9,1.9-1.7,3.1-2.3c0.1-0.1,0.3-0.1,0.4-0.2c0.1-0.1,0.3-0.1,0.4-0.2c4.3-2,8.9-2.8,13.6-3
			c1.8,0,3.6,0.3,5.3,0.9c3.8,1.4,7.8,2.4,11,5c2.3,1.9,4.3,4.1,5.7,6.7c0.5,0.9,0.9,1.2,1.9,0.7c0.5-0.3,1.1-0.6,1.7-0.8
			c4-1.1,8.1-1.4,12.3-1.2c1,0,1.9,0.4,2.8,0.6c1,0.3,1.8,1.3,2.7,1c1-0.3,1.1-1.6,1.7-2.4c2.7-3.8,5.9-6.8,10.4-8.3
			c3-1,6-2.3,9.1-2.8c0.4-0.1,0.8-0.2,1.3-0.1c1.9,0.1,3.8,0.2,5.8,0.5c4,0.7,7.8,2,11.2,4.3c0.2,0.1,0.4,0.2,0.7,0.3
			c0.7,0.2,1.2,0.7,1.6,1.3c0.1,0.2,0.2,0.4,0.5,0.5c0.2,0,0.4,0,0.6,0c0.9,0,1.8-0.1,2.7-0.1c0.2,0,0.5-0.1,0.7,0
			c1.1,0.2,2.5-0.5,3.2,0.6c0.8,1.3,0.8,2.9,0.8,4.4c0,0.9-0.8,1.1-1.5,1.1c-0.5,0-1,0-1.6-0.1c-1.9-0.5-2.2-0.3-1.7,1.4
			c0.8,2.6-0.3,5.1-0.7,7.6c-0.8,4.7-2.6,9.1-5.4,12.9c-3,4-6.9,6.4-11.8,7.4c-2.9,0.6-5.8,0.6-8.6,0.1c-3.7-0.6-7.4-1.9-10.4-4.5
			c-4.7-4.1-6.7-9.4-7.3-15.5c-0.2-1.6-0.5-3.1-0.6-4.7C315.9,239.7,314.8,239.3,313.8,238.9z"/>
		<path class="st10" d="M249.8,265c1.5,0.7,1.9,2.2,2.8,3.4c0.7,1.1,1.4,2.2,2.4,3c1.1,0.9,1.6,2.3,2.3,3.4
			c2.6,4.2,4.6,8.6,6.2,13.3c0.1,0.3,0.1,0.6,0.2,1c-1.1,0.1-1.4-0.3-1.9-1.4c-0.9-1.8-1.7-3.7-2.8-5.5c-0.3-0.5-0.8-0.9-1.4-0.9
			c-1.1,0-1-0.5-0.8-1.3c0.2-1.1,0.3-2.1-1-2.6c-0.8-0.3-0.3-1.1-0.3-1.7c0.2-1.9,0-2.3-2-2.6c-0.3,0-0.5-0.1-0.6-0.4
			C252,270.2,250.3,267.8,249.8,265z"/>
		<path class="st10" d="M351.3,286.5c-0.3-2,0.6-3.8,1-5.7c1.2-6,4.4-11.3,7-16.7c0-0.1,0.2-0.1,0.4-0.2c0,2.8-0.3,5.5-1,8.2
			c-0.2,0.6-0.3,0.8-1,0.7c-1.3-0.3-1.9,0.5-1.6,1.8c0.1,0.5,0.3,1,0.5,1.5c0.2,0.7,0.2,1.3-0.6,1.4c-1.1,0.2-1.3,1-1.3,1.9
			c0.1,1.2-0.3,2.3-0.6,3.5c-0.1,0.4-0.2,0.7-0.6,0.8c-0.6,0.1-1,0.7-1,1.2C352.3,285.8,351.8,286.1,351.3,286.5z"/>
		<path class="st11" d="M311.2,284.8c-0.1,0-0.2,0-0.3,0c0.2-1.2-0.5-2.3-0.1-3.8C311.4,282.4,311.1,283.7,311.2,284.8z"/>
		<path class="st5" d="M329.8,298c0-0.1,0.1-0.1,0.1-0.2c0,0,0,0.1,0.1,0.1C330,298,329.9,298,329.8,298
			C329.9,298.1,329.8,298,329.8,298z"/>
		<path class="st12" d="M257.7,227.4c-1.1,0.8-2.2,1.5-3.2,2.4c-1,1-1.9,1.5-3.2,0.8c1.5-3.9,3.9-7.1,7.1-9.7
			c1.4-1.2,2.8-2.3,4.2-3.4c1.3-1,2.8-1.1,4.3-1.4c3.9-0.7,7.7-1.3,11.6-1.7c3.6-0.3,7.3-0.1,10.9,0.1c0.9,0.1,1.4,0.5,1.7,1.3
			c0.3,1,0.4,2.1,0.7,3.6c0.4-1.6,0.2-2.9,0.2-4.1c0-0.7,0.1-1.4,1-1.4c0.9,0,1,0.7,1,1.4c-0.1,2.3,0.1,4.6-0.6,6.8
			c-0.1,1.1-1,1-1.7,1c-2.2,0.1-4.4-0.1-6.6-0.2c-4.5-0.3-8.9-0.1-13.4,0.3c-2.6,0.2-5.2,0.4-7.7,1c-1.8,0.4-3.4,0.9-4.8,2
			c-0.4,0.3-0.8,0.5-1.2,0.7l0,0C258,227.2,257.9,227.3,257.7,227.4z"/>
		<path class="st12" d="M357.1,229.8c-0.5-0.4-1-0.8-1.4-1.2c-2.4-2-4.9-3.9-7.8-5.3c-1.4-0.6-2.7-1.1-4.2-1c-1.5,0.1-3.1,0.1-4.6,0
			c-6.1-0.6-12.2-0.5-18.2,0.7c-1.2,0.2-2.4,0.5-3.7,0.5c-0.6,0-1.4,0.1-1.9-0.5c-0.5-0.8-0.7-1.7-0.7-2.6c0.2-1.9,0.4-3.8,0.5-5.7
			c0.1-0.7,0.3-1.3,1.1-1.2c0.9,0.1,1,0.8,0.9,1.5c-0.1,1-0.4,2-0.3,3.1c0.6-0.3,0.6-0.8,0.9-1.2c0.4-0.9,0.8-1.7,1.3-2.6
			c0.3-0.6,0.8-1.3,1.7-1c0.9,0.3,0.4,1.1,0.3,1.7c0.1,0,0.2,0.1,0.3,0.1c2.9-2.7,6.3-1.3,9.4-1.1c4.4,0.3,8.7,1,13.1,1.6
			c1.9,0.3,3.7,0.8,5.6,1.3c0.9,0.2,1.5,0.8,2,1.5c2.2,3,4.7,5.8,6.7,9c0.4,0.7,0.8,1.3,0.3,2.1c-0.1,0.2-0.3,0.3-0.5,0.4
			C357.5,230,357.3,229.9,357.1,229.8z"/>
		<path class="st13" d="M271.5,223c4.8-0.6,9.6-0.8,14.5-0.4c2,0.1,4,0.2,6,0.3c0.6,0,1.1-0.2,1.5-0.7c1.3,1.5,2.5,3.2,3.5,4.9
			c0.5,0.9,1.3,1.6,1.8,2.5c0.3,0.5,0.4,1.1,0.4,1.8c0,0.1,0,0.1,0,0.2c0,0.1,0,0.3,0,0.4c-0.4,1.6-0.9,3.1-1.7,4.6
			c-0.1,0.1-0.1,0.2-0.2,0.2c-0.8,0.4-1.6,1.1-2.4,1.1c-1,0-0.9-1.3-1.3-2c-3.2-5.1-7.8-8.2-13.5-10c-2.6-0.8-5.2-1.6-7.9-2
			C271.6,223.9,271.2,223.6,271.5,223z"/>
		<path class="st13" d="M315.3,223.1c2,0.2,4-0.3,5.9-0.6c6-1.1,12-1.2,18.1-0.5c0.2,1.2-0.7,1.3-1.4,1.5c-5.6,1.1-11.1,2.7-15.8,6
			c-2.4,1.7-4.3,4.1-5.6,6.8c-0.6,1.2-1.1,1.4-2.1,0.7c-0.5-0.3-1-0.5-1.5-0.8c-0.3-1.3-1-2.4-1.4-3.7c-0.2-0.6-0.5-1.2,0.1-1.8
			C313.2,228.3,314.1,225.6,315.3,223.1z"/>
		<path class="st8" d="M311.5,230.6c-0.1,1.3,0.6,2.4,1.1,3.6c0.2,0.6,0.8,1.2,0.3,1.9c-5.2-1.5-10.3-0.4-15.4,0.6
			c0.1-1.7,1.2-3.2,1.4-4.9c0.1-0.1,0.2-0.2,0.3-0.3c0,0,0,0,0,0c3.5-2.4,7.2-3.1,11.2-1.3C310.7,230.3,311.1,230.4,311.5,230.6z"/>
		<path class="st5" d="M357.7,229.8c0.2-0.1,0.4-0.1,0.5-0.2c0,0.1,0,0.3,0,0.4c-0.2,0.1-0.4,0.2-0.6,0.3
			C357.6,230.1,357.6,230,357.7,229.8z"/>
		<path class="st14" d="M287.3,299.7c2.2-1.2,4.5-2.3,6.7-3.6c2-1.2,3.6-2.8,5.6-3.9c2.4-1.4,3.3-1.5,5.4,0.3c1.1,0.9,2,0.8,3.1,0.1
			c0.2-0.2,0.4-0.4,0.7-0.5c2.1-1.6,3.5-1.6,5.5,0.1c3.3,2.9,7.4,4.4,11,6.8c0.4,0.3,1,0.4,1.4,0.6c0.1,0.5-0.3,0.5-0.6,0.6
			c-0.5,0.1-0.9,0.1-1.4,0.1c-0.5,0.1-1.4-0.1-1.3,0.7c0,0.7,0.8,0.4,1.3,0.5c0.5,0.1,1,0,1.3,0.5c-3.1,3.7-6.3,7.4-10.8,9.3
			c-4.9,2.1-10,2-15-0.2c-2.5-1.1-4.8-2.5-6.7-4.5c-1.5-1.7-3.4-2.9-5.2-4.2c0.4-1,1.3-0.5,1.9-0.7c0.3-0.1,0.8,0,0.8-0.4
			c0.1-0.5-0.4-0.6-0.7-0.7c-0.6-0.2-1.2,0-1.8-0.1C287.9,300.3,287.3,300.5,287.3,299.7z"/>
		<path class="st15" d="M300.5,279.4c0,0.2-0.1,0.4-0.1,0.6c0.4,1.5,0.2,3,0.1,4.5c0,0.6-0.4,0.9-0.8,1.3c-0.2,0.2-0.5,0.4-0.5,0.5
			c0.4,1.6-0.9,2.4-1.4,3.5c-0.5,1.1-2.2,1.4-3,0.6c-0.3-0.3-0.5-0.6-0.8-1.1c-0.9,2.1-3.3,2.7-4.3,4.7c-0.1,0.2-0.4,0.3-0.6,0.3
			c-0.9,0.2-2.1,0.2-2.2,1.5c-1.2-0.1-1.5,1.2-2.2,1.4c-1.8,0.7-1.3,1.9-1.2,3.1c0.1,1,0.6,2.3-0.8,2.6c-1.4,0.3-1.8-0.8-2.1-2
			c-1.5-5.9,1-10.9,5.8-14.2c0.7-0.5,1.4-0.8,1.6-1.7c0.1-0.2,0.4-0.6,0.6-0.6c1.4,0.1,2-1.1,2.9-1.7c0.5-0.3,1-0.7,1.6-0.3
			c0.7,0.4,1,0.3,1.2-0.5c0.4-1.4,0.7-2.9,2.7-2.8c0,0,0.1-0.2,0.2-0.4c1.4-1.5,2.5-1.5,3.4,0C300.5,279,300.5,279.2,300.5,279.4z"
			/>
		<path class="st16" d="M305.5,313c1.8,0.2,3.5,0.3,5.1,0.5c0.3,0,0.6,0,0.8-0.1c0.8-0.3,1.2,0.1,1.4,0.8c0.3,1.2,0.5,2.3,0.8,3.5
			c0.1,0.5,0,0.9-0.5,1.1c-0.4,0.2-0.8,0-1.1-0.3c-0.8-0.9-1.7-1.3-2.6-0.1c-0.2,0.3-0.6,0.4-0.9,0.3c-0.5-0.2-0.8-0.2-1,0.3
			c-0.1,0.3-0.6,0.4-0.7,0.3c-0.8-1.3-2,0.3-2.8-0.5c-0.2-0.2-0.3-0.5-0.3-0.8c0-0.6-0.1-0.9-0.8-0.9c-0.7,0-0.8-0.7-0.7-1.3
			C302.5,314.1,303.9,313,305.5,313z"/>
		<path class="st17" d="M287.3,299.7c0.5,0.7,1.3,0.3,2,0.4c0.5,0.1,1-0.1,1.5,0.2c0.5,0.2,0.9,0.5,0.8,1.2
			c-0.1,0.6-0.6,0.6-1.1,0.7c-0.8,0.1-1.6-0.3-2.3,0.3c-0.5-0.2-1-0.4-1.6-0.5c-0.7-0.1-1.3-0.3-1.2-1.1c0.1-0.7,0.6-1,1.3-1
			C286.9,299.7,287.1,299.7,287.3,299.7z"/>
		<path class="st17" d="M325.9,301.9c-0.7,0-1.3-0.1-2-0.1c-0.7,0-1.3-0.1-1.2-1c0-0.8,0.6-0.9,1.3-1c0.9-0.1,1.9,0.3,2.8-0.3
			c0.4,0,0.8,0,1.1,0.1c0.4,0.1,0.8,0.4,0.8,0.9c0.1,0.4-0.2,0.7-0.6,0.9C327.4,301.6,326.7,301.8,325.9,301.9z"/>
		<path class="st18" d="M300.5,284.5c-0.5-1.5-0.3-3-0.1-4.5c0.6,0.1,1.1-0.6,1.7-0.3c0.5,0.8,0.4,1.7,0.5,2.6
			c0.1,1.1,0.1,2.1-1.5,1.6C300.5,283.7,300.7,284.3,300.5,284.5z"/>
		<path class="st19" d="M313.4,270.8c1.2,0.4,2.6,0.9,3.8,1.7c0.6,0.4,0.7,1,0.2,1.7c-0.7,1-1.7,1.7-2.6,2.3
			c-0.6,0.4-1.2,0.3-1.8-0.1c-1.2-0.8-2.2-1.9-3.9-1.4c-0.6,0.2-1.1-0.2-0.7-1C308.7,273,312,270.8,313.4,270.8z"/>
		<path class="st19" d="M300.5,274.5c-0.7-0.4-1.1,0-1.6,0.6c-1.8,1.8-5.5,1.2-6.7-1c-0.4-0.8,0.3-1.3,0.8-1.8
			c1.9-1.7,4.8-1.8,7.3-0.2c0.4,0.3,0.9,0.6,1.2,1c0.2,0.3,0.4,0.7,0.2,1.1C301.4,274.5,301,274.5,300.5,274.5z"/>
		<path class="st18" d="M300.5,279.4c-0.3-0.2-0.3-0.4,0-0.6C300.7,279,300.7,279.2,300.5,279.4z"/>
		<path class="st3" d="M270.6,226c4.2,0,7.3,1.3,10.5,2.5c2.5,0.9,4.9,2.1,6.9,3.9c2.4,2.1,3.7,4.6,4,7.8c0.4,4.6-0.3,9.1-2.1,13.4
			c-1.7,4.2-4.6,7.2-9,9.1c-3.2,1.4-6.5,1.9-9.9,1.8c-5.6-0.1-10.3-2.4-13.8-6.9c-3.5-4.5-4.7-9.9-5.8-15.4c-0.7-3.8,0.4-7,3-9.7
			c2-2.1,4.5-3.5,7.2-4.5C264.7,226.8,268,226.4,270.6,226z"/>
		<path class="st3" d="M339.4,225.4c4.7,0.6,9.7,1.4,13.9,4.3c3.6,2.4,6.2,5.7,5.8,10.2c-0.8,6.9-2.3,13.7-7.6,18.9
			c-2.8,2.8-6.2,4.5-10.2,4.8c-3.8,0.3-7.5,0.1-11.2-1.4c-7.6-3-10.5-9-11.4-16.5c-0.2-1.8-0.5-3.6-0.4-5.5
			c0.3-5.9,3.9-9.2,8.8-11.5c3.1-1.4,6.3-2.6,9.6-3.2C337.5,225.4,338.3,225.5,339.4,225.4z"/>
		<path class="st5" d="M337.9,223.4c0.4-0.6,1.3-0.6,1.4-1.5c6.7-1,12,1.8,16.3,6.7c-1.7-0.5-3-1.8-4.6-2.4c-2.3-0.8-4.5-1.5-6.9-2
			C342,223.7,339.9,223.8,337.9,223.4z"/>
		<path class="st20" d="M271.5,223c0,0.5,0.4,0.7,0.6,1c-1.9,0.5-3.8,0.4-5.7,0.7c-2.5,0.5-5,1.1-7.3,2.2c-0.4,0.2-0.7,0.3-1.1,0.2
			c1.8-2.3,4.5-2.9,7.1-3.4C267.3,223.4,269.4,222.9,271.5,223z"/>
		<path class="st7" d="M357.7,229.8c0,0.1,0,0.3,0,0.4c-0.7,0.4-0.5-0.1-0.6-0.5C357.3,229.8,357.5,229.8,357.7,229.8z"/>
		<path class="st20" d="M257.7,227.4c0.1-0.1,0.2-0.2,0.3-0.3C258,227.3,257.9,227.4,257.7,227.4z"/>
		<path class="st7" d="M320.8,215.6C320.8,215.5,320.7,215.5,320.8,215.6c-0.1-0.1,0-0.1,0-0.2C320.8,215.4,320.9,215.4,320.8,215.6
			C320.9,215.5,320.8,215.5,320.8,215.6z"/>
		<path class="st7" d="M299.1,231.4c-0.1,0.1-0.2,0.2-0.3,0.3C298.9,231.6,299,231.5,299.1,231.4z"/>
		<path class="st17" d="M306.8,302.9c-2.1,0-4.2-0.1-5.6-2.1c-0.4-0.6-0.6-1.2-0.1-1.7c0.5-0.5,1-0.2,1.5,0.2
			c2.2,1.9,5.1,2.1,7.6,0.6c0.2-0.1,0.5-0.3,0.7-0.5c1.1-0.7,2-1.5,3.5-0.7c0.5,0.3,1.2,0.1,1.8,0.1c0.7,0,1.4,0.2,1.4,1
			c0,0.8-0.8,0.9-1.4,1c-0.9,0.1-1.7,0-2.6,0c-0.9,0-1.7,0.2-2.4,0.8C310.2,302.7,309,302.9,306.8,302.9z"/>
		<path class="st11" d="M286.7,242.4c0,0.1,0,0.2,0,0.3c-0.2,1.1-0.6,2-1.9,2.2c-1.9-1.3-1.9-1.3-2.9,0.8c-0.5,1.1-1.5,1.7-2,2.8
			c-2.3,2-5,2.2-7.9,1.9c-0.4,0-0.7-0.2-0.9-0.6c0-0.1-0.1-0.2-0.1-0.2c0.1-1.1,0.9-1.8,1.5-2.6c2-2.8,3.9-5.5,5.7-8.4
			c0.2-0.2,0.3-0.5,0.6-0.6c0.2,0,0.4,0,0.5,0c0.4-0.3,0.8-0.4,1.2-0.2C283.1,238.6,285.4,239.9,286.7,242.4z"/>
		<path class="st21" d="M271.1,249.8c3.2,0.9,6.2,0.2,8.9-1.7c0.7-0.1,1.4,0.1,2,0.6c-0.5,1.4-1.6,2.4-2.5,3.4c-1.5,1.8-3,3.7-5,5.1
			c-0.1,0.1-0.2,0.2-0.3,0.3c-2.2,2.3-3.1,2.4-5.8,0.6c-1.2-0.8-1.6-1.7-0.8-3C268.7,253.3,269.6,251.4,271.1,249.8z"/>
		<path class="st22" d="M278.8,238c-1,2.4-2.7,4.4-4.2,6.6c-1.1,1.7-2.4,3.3-3.6,4.9c-1.2-0.3-1.9-1.2-2.6-2c-0.8-0.8-1.4-1.8-1-3
			c1.9-2.2,3.7-4.5,5.7-6.6c0.3-0.1,0.6-0.1,0.8,0.1C275.5,237.7,277.1,237.6,278.8,238z"/>
		<path class="st21" d="M286.7,242.4c-1.2-1-2.2-2.3-3.7-3.1c-1.2-0.7-2.3-1.3-3.7-1.3c0.2-1,0.9-1.7,1-2.8c0-0.7,0.8-1.2,1.8-1
			c2.1,0.6,4,1.6,5.8,2.8c1,0.6,1.3,1.6,0.6,2.7C287.9,240.6,287.4,241.6,286.7,242.4z"/>
		<path class="st21" d="M273.9,238c-0.3,0-0.6,0.1-0.8,0.1c-1.3,0.5-2.6,1-4,0.6c0.5-1.4,1.8-2.3,2.7-3.4c1.5-1.9,3.5-3.3,5-5.3
			c0.5-0.6,1.2-0.6,1.8-0.4c0.7,0.2,0.8,0.9,0.8,1.5c0,0.7-0.4,1.2-0.9,1.7c-1.3,1.2-2.5,2.5-3.8,3.8
			C274.2,237,273.8,237.3,273.9,238z"/>
		<path class="st18" d="M261.5,245.2c-0.3,0.1-0.5,0.1-0.8,0.2c-0.9,0.2-1.6,0-2-0.9c-0.3-0.8,0-1.5,0.8-1.9c2.8-1.4,5.5-3,8.6-3.6
			c0.4,0.6-0.1,1-0.4,1.3c-0.5,0.8-1.3,1.5-1.7,2.5C264.7,243.8,263.2,244.8,261.5,245.2z"/>
		<path class="st23" d="M261.5,245.2c1.4-0.9,2.9-1.7,4.3-2.6c0.6-0.4,1.2-0.8,1.8-0.2c0.5,0.6,0.4,1.3,0,2
			c-0.4,1.2,0.6,2.1,0.8,3.1c-0.9,1.6-2.1,0.5-3.1,0.3c-1.1,0-2.3,0-3.2-0.9C261.7,246.4,261.4,245.9,261.5,245.2z"/>
		<path class="st21" d="M262.1,246.9c1,0.4,2.2,0.2,3.2,0.9c-1.2,1.6-2.3,3.1-3.5,4.7c-0.5,0.7-1.1,1.1-1.9,0.6
			c-0.8-0.4-1.1-1.1-0.7-2C259.8,249.5,260.9,248.2,262.1,246.9z"/>
		<path class="st11" d="M267.6,244.4c0-0.1-0.1-0.2-0.1-0.3c0.3-1.5-0.4-1.9-1.7-1.5c0.2-1.2,1.3-1.7,1.8-2.7c0.2-0.3,0.5-0.5,0.5-1
			c0.3-0.1,0.6-0.2,0.9-0.3c1.4,0,2.6-0.8,4-0.6C271.4,240.4,269.7,242.5,267.6,244.4z"/>
		<path class="st23" d="M281.9,248.7c-0.7,0.1-1.4,0-2-0.6c0.1-0.5,0.2-1,0.7-1.3c0.7-0.5,1-1.2,1.2-2c0.1-0.7,0.3-1.5,0.9-1.6
			c0.6-0.1,1.2,0.5,1.6,1c0.1,0.2,0.3,0.3,0.5,0.5c0.4,0.5,0.9,1,0.9,1.7C285,248.1,283.3,248.2,281.9,248.7z"/>
		<path class="st18" d="M285.7,246.3c-0.4-0.5-0.8-1-0.9-1.7c1.1-0.2,1.2-1.4,1.9-2c0.4,0.4,0.8,0.8,0.9,1.4
			C288.1,245.5,287.5,246.3,285.7,246.3z"/>
		<path class="st21" d="M345.1,239.1c1.1-2.4,2.7-4.4,4.5-6.3c0.1-0.1,0.2-0.1,0.2-0.1c1.1-0.4,4.9,0.8,5.9,1.9
			c1.3,1.4,0.9,3,0.1,4.4c-1.3,2.5-3.3,4.5-5,6.8c-2.8,3.8-5.7,7.6-8.6,11.4c-0.6,0.8-1.2,1.7-1.9,2.5c-0.7,0.8-1.6,1.2-2.7,0.8
			c-1.5-0.6-3.1-1.2-4.6-1.8c-1.2-0.5-1.4-2-0.6-3c1.4-1.8,2.9-3.7,4.3-5.5c0.3-0.4,0.6-0.8,0.7-1.4c0.1-0.4,0.4-0.6,0.8-0.7
			c1.2-0.2,1.9-1.4,3.1-1.6c2.2,0.5,4.1-0.7,6.2-1c1-0.2,1.6-0.7,1.9-1.6c0.6-0.5,1.7-0.5,1.6-1.6c-0.1-1-1.1-1.2-1.9-1.5
			c-0.9-0.3-1.8-0.4-2.6-0.7C346,239.8,345.3,239.8,345.1,239.1z"/>
		<path class="st22" d="M338.4,248.3c-0.3,0.2-0.5,0.3-0.8,0.5c-2.4,0.4-4.2-0.6-5.7-2.4c-0.1-0.1-0.2-0.2-0.2-0.4
			c0-0.7,0.4-1.2,0.8-1.6c1.9-2.4,4-4.7,6-7c0.2-0.1,0.4-0.1,0.6,0.1c1.7,0.5,3.4,1,5.2,1.4c0.4,0.5,0.3,1,0,1.4
			C342.2,243,340.5,245.7,338.4,248.3z"/>
		<path class="st18" d="M325.3,245.5c-0.8,0.5-1.6,0.8-2.3,0c-0.7-0.7-0.5-1.6,0-2.4c2.5-3.9,5.8-6.5,10.7-6.5c0.5,0,1,0,1.6,0
			c0.2,0,0.2,0.1,0.2,0.2c-0.8,1.7-2.3,2.8-3.5,4.3c-0.3,0.4-0.7,0.7-1.2,0.4c-0.3-0.5-0.6-0.7-1.3-0.3c-1.3,0.8-2.4,1.9-3.2,3.2
			C325.9,244.9,325.8,245.3,325.3,245.5z"/>
		<path class="st21" d="M335.3,236.9c-0.1-0.1-0.1-0.2-0.2-0.2c1-0.6,1.7-1.5,2.4-2.4c1.9-2.1,4.1-3.9,5.8-6.1
			c0.4-0.5,1.1-1,1.9-0.4c0.7,0.6,0.9,1.4,0.5,2.2c-0.3,0.6-0.8,1.2-1.3,1.7c-1.9,1.9-3.7,3.8-5.4,5.9c-0.2,0-0.4,0-0.6,0
			C337.4,237.6,336.3,237.5,335.3,236.9z"/>
		<path class="st11" d="M338.4,248.3c0.6-1.8,2-3.1,3-4.7c0.7-1.1,1.6-2.2,2.4-3.3c0.3-0.4,0.4-0.8,0.3-1.3c0.3,0.1,0.6,0.1,0.9,0.2
			c1.2,0.6,2.5,0.7,3.8,1.1c0.6,0.2,1.2,0.4,1.7,0.6c0.7,0.3,1.1,0.9,1,1.7c-0.2,1-1,1.3-1.9,1.3c-1.3-0.1-2.6-0.4-3.9-0.8
			c-1-0.3-1.6-0.1-2.1,0.8c-0.5,1.1-1.3,2.1-2.3,2.8C340.4,247.2,339.7,248.2,338.4,248.3z"/>
		<path class="st23" d="M325.3,245.5c0.9-2.2,2.6-3.7,4.6-4.9c1.2-0.8,0.8,0.4,1,0.9c0.5,1.5,0.7,3.1,1.1,4.6c0,0.1,0,0.2,0,0.3
			c-0.5,0-0.7,0.4-1.1,0.6c-1.2,0.1-2.3-0.5-3.4-0.6C326.4,246.5,325.9,245.9,325.3,245.5z"/>
		<path class="st21" d="M327.3,246.4c1.3-0.6,2.3,0.1,3.4,0.6c-0.9,2-2.4,3.6-3.8,5.3c-0.5,0.7-1.2,1-2,0.5
			c-0.9-0.6-0.7-1.5-0.3-2.3c0.6-0.9,1.2-1.8,1.9-2.7C326.9,247.3,327.2,246.9,327.3,246.4z"/>
		<path class="st24" d="M341.4,246.7c0.8-1.4,2-2.5,2.5-4c0.1-0.3,0.3-0.5,0.7-0.4c1.7,0.7,3.6,0.5,5.2,1.5c0.1,1.1-0.4,1.6-1.5,1.8
			c-1.7,0.4-3.4,0.9-5.1,1.5C342.3,247.4,342,246.6,341.4,246.7z"/>
		<path class="st11" d="M331.8,246.1c-0.7-1.5-1.4-2.9-1.1-4.6c1.6-0.7,2.3-2.5,3.6-3.6c0.3-0.3,0.5-0.8,1-1c1.1,0,2.1,0.3,3.1,0.6
			c-0.9,2-2.8,3.3-4.1,5C333.5,243.7,332.3,244.6,331.8,246.1z"/>
	</g>
</g>
</svg>
